G04 DipTrace 2.4.0.2*
%INBottomMask.gbr*%
%MOIN*%
%ADD25R,0.0709X0.0709*%
%ADD29C,0.0787*%
%ADD32C,0.0709*%
%ADD40R,0.0787X0.0787*%
%ADD41C,0.1772*%
%ADD51R,0.0866X0.0866*%
%ADD52C,0.126*%
%ADD54R,0.126X0.126*%
%ADD62O,0.0866X0.0472*%
%ADD66C,0.0866*%
%ADD67C,0.0669*%
%ADD73C,0.0787*%
%ADD75O,0.1457X0.2047*%
%ADD77O,0.2047X0.1457*%
%ADD79O,0.185X0.2441*%
%FSLAX44Y44*%
G04*
G70*
G90*
G75*
G01*
%LNBotMask*%
%LPD*%
D25*
X12486Y16838D3*
D32*
Y15838D3*
D25*
X16624Y18642D3*
D32*
X15624D3*
D79*
X9676Y16783D3*
D77*
X8495Y14815D3*
D75*
X7255Y16783D3*
D73*
X23962Y16386D3*
X22962D3*
D40*
X21962D3*
D73*
Y17386D3*
X22962D3*
X23962D3*
G36*
X14152Y6857D2*
Y6598D1*
X13969Y6415D1*
X13711D1*
X13528Y6598D1*
Y6857D1*
X13711Y7040D1*
X13969D1*
X14152Y6857D1*
G37*
D67*
X13840Y5727D3*
G36*
X11147Y6871D2*
Y6613D1*
X10964Y6430D1*
X10705D1*
X10522Y6613D1*
Y6871D1*
X10705Y7054D1*
X10964D1*
X11147Y6871D1*
G37*
D67*
X10834Y5742D3*
D66*
X20658Y5845D3*
X22627D3*
X26564D3*
X28533D3*
X20749Y21599D3*
X22718D3*
X26655D3*
X28623D3*
D40*
X31809Y6447D3*
D73*
X32809D3*
X33809D3*
D41*
X6111Y6120D3*
X5993Y21566D3*
X41214Y21442D3*
X41198Y6003D3*
D40*
X40987Y18212D3*
D73*
Y17212D3*
Y16212D3*
D40*
X40992Y11190D3*
D73*
Y10190D3*
Y9190D3*
D40*
X40985Y14741D3*
D73*
Y13741D3*
Y12741D3*
D62*
X26537Y10909D3*
Y11659D3*
Y12409D3*
X32433Y9757D3*
Y10507D3*
Y11257D3*
D29*
X20691Y9620D3*
X24084D3*
X24777Y10868D3*
Y14262D3*
X34500Y12691D3*
Y9297D3*
X28599Y12222D3*
Y15616D3*
X30239Y12195D3*
Y15588D3*
X25951Y8436D3*
X29345D3*
X13439Y12495D3*
Y9101D3*
X12232Y12492D3*
Y9098D3*
D54*
X6316Y10190D3*
D52*
Y11749D3*
D51*
X11656Y20536D3*
D66*
X12656D3*
X13656D3*
M02*
