G04 DipTrace 2.4.0.2*
%INBottom.gbr*%
%MOIN*%
%ADD13C,0.0591*%
%ADD14C,0.0197*%
%ADD16C,0.0394*%
%ADD19R,0.063X0.063*%
%ADD20C,0.063*%
%ADD21O,0.1772X0.2362*%
%ADD22O,0.1969X0.1378*%
%ADD23O,0.1378X0.1969*%
%ADD24C,0.0709*%
%ADD25R,0.0709X0.0709*%
%ADD28C,0.0591*%
%ADD29C,0.0787*%
%ADD31O,0.0787X0.0394*%
%ADD32C,0.0709*%
%ADD38R,0.1181X0.1181*%
%ADD39C,0.1181*%
%ADD40R,0.0787X0.0787*%
%FSLAX44Y44*%
G04*
G70*
G90*
G75*
G01*
%LNBottom*%
%LPD*%
X9736Y8417D2*
D13*
X9123D1*
X8558Y7852D1*
Y5700D1*
X9516Y4741D1*
X17971D1*
X19110Y5880D1*
X20623D1*
X20658Y5845D1*
X22627D1*
X32327Y13106D2*
X33270D1*
X33799Y13635D1*
X35363D1*
X20297Y16810D2*
D14*
X19001D1*
X18414Y17397D1*
X16893D1*
X15684Y16187D1*
Y15462D1*
X14681Y14460D1*
X12366D1*
X11139Y13233D1*
Y8453D1*
X10707Y8021D1*
X10500D1*
X9878Y7399D1*
Y6345D1*
X10413Y5809D1*
X10767D1*
X10834Y5742D1*
X13825D1*
X13840Y5727D1*
X19533Y14592D2*
Y15363D1*
X19684Y15514D1*
X20065D1*
X20846Y16294D1*
X21870D1*
X21962Y16386D1*
X32433Y9757D2*
Y8866D1*
X31117Y7551D1*
X28473D1*
X27829Y8195D1*
Y10517D1*
X28473Y11161D1*
X29898D1*
X30289Y11552D1*
Y12144D1*
X30239Y12195D1*
X32433Y9757D2*
X32892D1*
X33409Y9241D1*
Y8498D1*
X34152Y7755D1*
X35638D1*
X36951Y9068D1*
Y10450D1*
X37815Y11314D1*
X40868D1*
X40992Y11190D1*
X41640D1*
X42117Y11668D1*
Y14294D1*
X41703Y14709D1*
X41017D1*
X40985Y14741D1*
X21934Y10258D2*
Y9049D1*
X21573Y8688D1*
X18039D1*
X17583Y8232D1*
X15541D1*
X14897Y8876D1*
Y10258D1*
X13782Y11374D1*
Y12152D1*
X13439Y12495D1*
X19782Y9787D2*
X18494D1*
X17410Y8703D1*
X15777D1*
X15478Y9002D1*
Y10368D1*
X14489Y11358D1*
Y12709D1*
X13860Y13337D1*
X13078D1*
X12232Y12492D1*
X13656Y20536D2*
D13*
X16036D1*
X16637Y19936D1*
Y18655D1*
X16624Y18642D1*
X17700D1*
X18286Y19229D1*
X24084Y9620D2*
D14*
Y10175D1*
X24777Y10868D1*
Y10969D1*
X25508Y11700D1*
X26496D1*
X26537Y11659D1*
Y10909D2*
X26241D1*
X25869Y10538D1*
Y8518D1*
X25951Y8436D1*
X29345D2*
X30830D1*
X31347Y8954D1*
Y10011D1*
X31876Y10540D1*
X32400D1*
X32433Y10507D1*
X33290D1*
X34500Y9297D1*
X34375Y16922D2*
X34721D1*
X35110Y16533D1*
X36939D1*
X38615Y18209D1*
X40983D1*
X40987Y18212D1*
X33875Y15228D2*
X36593D1*
X37417Y14404D1*
X38538D1*
X39622Y15487D1*
Y16552D1*
X40268Y17198D1*
X40973D1*
X40987Y17212D1*
X6316Y10190D2*
D13*
X7603D1*
X8297Y10884D1*
Y11525D1*
X9685Y12913D1*
X10125D1*
X26564Y5845D2*
X28533D1*
X29162D1*
X30056Y4951D1*
X36532D1*
X38809Y7228D1*
Y7683D1*
X39442Y8315D1*
X41592D1*
X42123Y8847D1*
Y9833D1*
X41719Y10238D1*
X41039D1*
X40992Y10190D1*
X25358Y18160D2*
D14*
Y18480D1*
X25579Y18700D1*
X27084D1*
X27383Y18402D1*
X27591D1*
X28499Y17493D1*
Y16442D1*
X27954Y15896D1*
Y12867D1*
X28599Y12222D1*
X17113Y6352D2*
X18527D1*
X18652Y6478D1*
X19171D1*
X19548Y6855D1*
Y7609D1*
X19579Y7640D1*
X29696Y17181D2*
X29234D1*
X29041Y16988D1*
Y16109D1*
X29438Y15712D1*
Y14178D1*
X31270Y12346D1*
X33026D1*
X35431Y9942D1*
X24664Y7139D2*
X24208D1*
X22999Y8348D1*
Y10249D1*
X22307Y10940D1*
X21067D1*
X20705Y10579D1*
Y9635D1*
X20691Y9620D1*
X21916Y14019D2*
X23237D1*
X24782Y15565D1*
X25228D1*
X25772Y16109D1*
Y17649D1*
X26118Y17994D1*
X29513Y16564D2*
X31746D1*
X32357Y15954D1*
Y15487D1*
X32759Y15084D1*
X23793Y13392D2*
X25537D1*
X26888Y14743D1*
Y15528D1*
X28034Y16675D1*
X29629Y17900D2*
X30904D1*
X31658Y17146D1*
X32946D1*
X33198Y16895D1*
X13439Y9101D2*
Y7129D1*
X13840Y6727D1*
X10834Y6742D2*
X11044D1*
X12031Y7729D1*
Y8897D1*
X12232Y9098D1*
X22530Y11648D2*
Y12278D1*
X22255Y12552D1*
X21493D1*
X21333Y12712D1*
D16*
X9736Y8417D3*
X32327Y13106D3*
X35363Y13635D3*
X20297Y16810D3*
X19533Y14592D3*
X21934Y10258D3*
X19782Y9787D3*
X18286Y19229D3*
X34375Y16922D3*
X33875Y15228D3*
X10125Y12913D3*
X25358Y18160D3*
X17113Y6352D3*
X19579Y7640D3*
X29696Y17181D3*
X35431Y9942D3*
X24664Y7139D3*
X21916Y14019D3*
X26118Y17994D3*
X29513Y16564D3*
X32759Y15084D3*
X23793Y13392D3*
X28034Y16675D3*
X29629Y17900D3*
X33198Y16895D3*
X22530Y11648D3*
X21333Y12712D3*
D19*
X12486Y16838D3*
D20*
Y15838D3*
D19*
X16624Y18642D3*
D20*
X15624D3*
D21*
X9676Y16783D3*
D22*
X8495Y14815D3*
D23*
X7255Y16783D3*
D24*
X23962Y16386D3*
X22962D3*
D25*
X21962D3*
D24*
Y17386D3*
X22962D3*
X23962D3*
G36*
X14113Y6840D2*
Y6614D1*
X13953Y6455D1*
X13727D1*
X13567Y6614D1*
Y6840D1*
X13727Y7000D1*
X13953D1*
X14113Y6840D1*
G37*
D28*
X13840Y5727D3*
G36*
X11107Y6855D2*
Y6629D1*
X10947Y6469D1*
X10721D1*
X10562Y6629D1*
Y6855D1*
X10721Y7015D1*
X10947D1*
X11107Y6855D1*
G37*
D28*
X10834Y5742D3*
D29*
X20658Y5845D3*
X22627D3*
X26564D3*
X28533D3*
X20749Y21599D3*
X22718D3*
X26655D3*
X28623D3*
D25*
X31809Y6447D3*
D24*
X32809D3*
X33809D3*
D25*
X40987Y18212D3*
D24*
Y17212D3*
Y16212D3*
D25*
X40992Y11190D3*
D24*
Y10190D3*
Y9190D3*
D25*
X40985Y14741D3*
D24*
Y13741D3*
Y12741D3*
D31*
X26537Y10909D3*
Y11659D3*
Y12409D3*
X32433Y9757D3*
Y10507D3*
Y11257D3*
D32*
X20691Y9620D3*
X24084D3*
X24777Y10868D3*
Y14262D3*
X34500Y12691D3*
Y9297D3*
X28599Y12222D3*
Y15616D3*
X30239Y12195D3*
Y15588D3*
X25951Y8436D3*
X29345D3*
X13439Y12495D3*
Y9101D3*
X12232Y12492D3*
Y9098D3*
D38*
X6316Y10190D3*
D39*
Y11749D3*
D40*
X11656Y20536D3*
D29*
X12656D3*
X13656D3*
M02*
