M48
INCH
T01C0.0197
T02C0.0276
T03C0.0315
T04C0.0354
T05C0.0394
T06C0.0402
T07C0.0472
T08C0.0669
T09C0.0709
T10C0.0984
T11C0.1378
T12C0.1772
%
T01
X+009736Y+008417
X+010125Y+012913
X+019533Y+014592
X+020297Y+016810
X+018286Y+019229
X+021916Y+014019
X+021333Y+012712
X+022530Y+011648
X+021934Y+010258
X+019782Y+009787
X+019579Y+007640
X+017113Y+006352
X+024664Y+007139
X+023793Y+013392
X+025358Y+018160
X+026118Y+017994
X+028034Y+016675
X+029513Y+016564
X+029696Y+017181
X+029629Y+017900
X+033198Y+016895
X+034375Y+016922
X+033875Y+015228
X+032759Y+015084
X+032327Y+013106
X+035363Y+013635
X+035431Y+009942
T02
X+026537Y+010909
X+026537Y+011659
X+026537Y+012409
X+032433Y+011257
X+032433Y+010507
X+032433Y+009757
T03
X+023962Y+016386
X+023962Y+017386
X+022962Y+017386
X+021962Y+017386
X+021962Y+016386
X+022962Y+016386
X+024777Y+014262
X+024777Y+010868
X+024084Y+009620
X+025951Y+008436
X+029345Y+008436
X+031809Y+006447
X+032809Y+006447
X+033809Y+006447
X+034500Y+009297
X+034500Y+012691
X+030239Y+012195
X+028599Y+012222
X+028599Y+015616
X+030239Y+015588
X+040987Y+016212
X+040987Y+017212
X+040987Y+018212
X+040985Y+014741
X+040985Y+013741
X+040985Y+012741
X+040992Y+011190
X+040992Y+010190
X+040992Y+009190
X+020691Y+009620
X+013439Y+009101
X+012232Y+009098
X+012232Y+012492
X+013439Y+012495
T04
X+012486Y+016838
X+012486Y+015838
X+015624Y+018642
X+016624Y+018642
T05
X+013840Y+006727
X+013840Y+005727
X+010834Y+005742
X+010834Y+006742
T06
X+011656Y+020536
X+012656Y+020536
X+013656Y+020536
T07
X+020658Y+005845
X+022627Y+005845
X+026564Y+005845
X+028533Y+005845
X+028623Y+021599
X+026655Y+021599
X+022718Y+021599
X+020749Y+021599
T08
X+006316Y+010190
T09
X+006316Y+011749
T10
X+008495Y+014815
X+007255Y+016783
T11
X+009676Y+016783
T12
X+006111Y+006120
X+005993Y+021566
X+041214Y+021442
X+041198Y+006003
T00
M30
