G04 DipTrace 2.4.0.2*
%INTop.gbr*%
%MOIN*%
%ADD13C,0.0591*%
%ADD14C,0.0197*%
%ADD15C,0.0551*%
%ADD16C,0.0394*%
%ADD17R,0.0551X0.0709*%
%ADD18R,0.0709X0.0551*%
%ADD19R,0.063X0.063*%
%ADD20C,0.063*%
%ADD21O,0.1772X0.2362*%
%ADD22O,0.1969X0.1378*%
%ADD23O,0.1378X0.1969*%
%ADD24C,0.0709*%
%ADD25R,0.0709X0.0709*%
%ADD26R,0.0787X0.0827*%
%ADD27R,0.0827X0.0787*%
%ADD28C,0.0591*%
%ADD29C,0.0787*%
%ADD30R,0.0394X0.0394*%
%ADD31O,0.0787X0.0394*%
%ADD32C,0.0709*%
%ADD34R,0.0236X0.0787*%
%ADD36R,0.0197X0.0827*%
%ADD37R,0.0827X0.0197*%
%ADD38R,0.1181X0.1181*%
%ADD39C,0.1181*%
%ADD40R,0.0787X0.0787*%
%FSLAX44Y44*%
G04*
G70*
G90*
G75*
G01*
%LNTop*%
%LPD*%
X10313Y9775D2*
D13*
Y8994D1*
X9736Y8417D1*
X18163Y14979D2*
D14*
Y14617D1*
X17946Y14399D1*
Y13538D1*
X17950Y13533D1*
X17635D1*
X19409Y17441D2*
D15*
Y16959D1*
D13*
X18946Y16496D1*
X18371D1*
D15*
X18190Y16315D1*
Y15666D1*
D13*
Y15006D1*
D15*
X18163Y14979D1*
X19409Y17441D2*
Y16870D1*
D13*
Y16473D1*
Y16237D1*
X20501Y15145D1*
X23894D1*
X24777Y14262D1*
X25171D1*
X25787Y14878D1*
Y16669D1*
X25033Y17423D1*
X23999D1*
X23962Y17386D1*
X24777Y14262D2*
Y13067D1*
X25419Y12425D1*
X26521D1*
D16*
X26537Y12409D1*
Y12901D1*
D13*
Y13197D1*
X27556Y14216D1*
Y14572D1*
X28599Y15616D1*
X30211D1*
X30239Y15588D1*
Y14021D1*
X30717Y13543D1*
X31890D1*
X32327Y13106D1*
X35363Y13635D2*
Y14636D1*
D15*
X35374Y14647D1*
D14*
Y15923D1*
X35375Y15925D1*
X35374Y14647D2*
X36053D1*
X36642Y15236D1*
Y16669D1*
X36652Y16678D1*
X19409Y16473D2*
X19960D1*
X20297Y16810D1*
X19249Y12864D2*
X19818D1*
X20136Y13182D1*
Y13989D1*
X19533Y14592D1*
X30239Y12195D2*
Y10236D1*
X30282Y10193D1*
X7255Y16783D2*
D13*
Y16055D1*
X8495Y14815D1*
X11462D1*
X12486Y15838D1*
X14241D1*
X15217Y16814D1*
Y18236D1*
X15624Y18642D1*
X13831D1*
X12729Y19744D1*
Y20463D1*
X12656Y20536D1*
X15624Y18642D2*
Y17790D1*
X16074Y17340D1*
X16319D1*
X16940Y16719D1*
D15*
X17344Y16315D1*
Y15666D1*
D13*
Y15006D1*
D15*
X17317Y14979D1*
X15624Y18642D2*
D13*
Y19815D1*
X16686Y20877D1*
X19267D1*
X21088Y19056D1*
Y18260D1*
X21962Y17386D1*
Y18336D1*
X22631Y19005D1*
X30322D1*
X30752Y19435D1*
X31144D1*
D15*
X31182Y19474D1*
Y18824D1*
D13*
Y18183D1*
X30642Y17643D1*
Y16562D1*
X31079Y16125D1*
Y14952D1*
X31654Y14378D1*
X33470D1*
X33649Y14556D1*
X34436D1*
D15*
X34527Y14647D1*
Y13998D1*
D13*
Y12718D1*
X34500Y12691D1*
Y12308D1*
X33626Y11435D1*
X33499Y11307D1*
X32482D1*
D16*
X32433Y11257D1*
X33626Y11435D2*
D13*
Y6630D1*
X33809Y6447D1*
X40992Y9190D2*
X39651D1*
X39563Y9278D1*
X38933Y9909D1*
Y11771D1*
X39902Y12741D1*
X40985D1*
X41955D1*
X42544Y13330D1*
Y15537D1*
X41651Y16431D1*
X41206D1*
X40987Y16212D1*
X39563Y9278D2*
X38270D1*
X37102Y8110D1*
Y6685D1*
X35258Y4841D1*
X9844D1*
X8609Y6077D1*
Y10606D1*
X7715Y11499D1*
X6566D1*
X6316Y11749D1*
X7034D1*
X8590Y13305D1*
Y14720D1*
X8495Y14815D1*
X17317Y14979D2*
D14*
Y13537D1*
X17320Y13533D1*
X17005D1*
X34527Y14647D2*
Y14960D1*
X34880Y15312D1*
Y15921D1*
X34875Y15925D1*
X19249Y10974D2*
X21218D1*
X21934Y10258D1*
X19249Y10659D2*
X20088D1*
X20285Y10463D1*
Y10290D1*
X19782Y9787D1*
X9676Y16783D2*
D13*
X12431D1*
X12486Y16838D1*
Y17800D1*
X11783Y18502D1*
Y20410D1*
X11656Y20536D1*
Y22003D1*
X12080Y22428D1*
X19921D1*
X20749Y21599D1*
X22718D1*
X18286Y19229D2*
X19119D1*
X19339Y19009D1*
Y18358D1*
D15*
X19409Y18288D1*
X35375Y18090D2*
D14*
Y18250D1*
X35877Y18751D1*
Y19488D1*
X35903Y19513D1*
X34375Y18090D2*
Y18566D1*
X34619Y18810D1*
X34775D1*
X34960Y18995D1*
Y19417D1*
X35056Y19513D1*
X33875Y18090D2*
Y18768D1*
X34004Y18898D1*
Y19461D1*
X34018Y19474D1*
X33375Y18090D2*
Y18630D1*
X33205Y18800D1*
Y19441D1*
X33171Y19474D1*
X34875Y18090D2*
Y17373D1*
X35068Y17181D1*
X35692D1*
X35984Y17474D1*
X36601D1*
X36652Y17525D1*
X32875Y18090D2*
Y18583D1*
X32649Y18810D1*
X32220D1*
X32024Y19005D1*
Y19469D1*
X32029Y19474D1*
X34375Y15925D2*
Y16922D1*
X33875Y15925D2*
Y15228D1*
X10125Y12913D2*
D13*
X10340Y12699D1*
Y11563D1*
X10313Y11536D1*
X26655Y21599D2*
X28623D1*
X37235D1*
X38702Y20133D1*
Y14906D1*
X39789Y13819D1*
X40907D1*
X40985Y13741D1*
X18543Y7033D2*
D14*
X23242D1*
X26044Y9835D1*
X28163D1*
X28522Y10193D1*
X28599Y12222D2*
Y10271D1*
X28522Y10193D1*
Y9432D1*
X28092Y9002D1*
Y7240D1*
X28472Y6860D1*
X31396D1*
X31809Y6447D1*
X27016Y17364D2*
X26037D1*
X25345Y18056D1*
X25358Y18160D1*
X16713Y7044D2*
Y6752D1*
X17113Y6352D1*
X19579Y7640D2*
Y8509D1*
X20691Y9620D1*
X28835Y17403D2*
X29474D1*
X29696Y17181D1*
X35431Y9942D2*
Y6220D1*
X34866Y5656D1*
X33068D1*
X32776Y5948D1*
Y6413D1*
X32809Y6447D1*
Y6024D1*
X32462Y5677D1*
X30455D1*
X29702Y6429D1*
X29008D1*
X28923Y6514D1*
X25288D1*
X24664Y7139D1*
X21291Y13841D2*
X21738D1*
X21916Y14019D1*
X26118Y17994D2*
X26885D1*
X27016Y17864D1*
X27344D1*
X27501Y17707D1*
Y16538D1*
X27930Y16110D1*
X28267D1*
X28929Y16772D1*
X29306D1*
X29513Y16564D1*
X32759Y15084D2*
Y15175D1*
X32876Y15292D1*
Y15924D1*
X32875Y15925D1*
X22697Y13763D2*
X23422D1*
X23793Y13392D1*
X28034Y16675D2*
Y17539D1*
X28443Y17947D1*
X28791D1*
X28835Y17903D1*
X29629Y17900D1*
X33198Y16895D2*
X33229D1*
X33402Y16722D1*
Y15952D1*
X33375Y15925D1*
X16690Y9990D2*
Y8924D1*
X17247Y8367D1*
X18311D1*
X18623Y8055D1*
Y7613D1*
X18543Y7533D1*
X19249Y11604D2*
X21529D1*
X22734Y12810D1*
Y13226D1*
X22697Y13263D1*
X16375Y9990D2*
Y8564D1*
X16689Y8250D1*
Y7568D1*
X16713Y7544D1*
X19249Y11289D2*
X22172D1*
X22530Y11648D1*
X21333Y12712D2*
Y13299D1*
X21291Y13341D1*
D16*
X9736Y8417D3*
X32327Y13106D3*
X35363Y13635D3*
X20297Y16810D3*
X19533Y14592D3*
X21934Y10258D3*
X19782Y9787D3*
X18286Y19229D3*
X34375Y16922D3*
X33875Y15228D3*
X10125Y12913D3*
X25358Y18160D3*
X17113Y6352D3*
X19579Y7640D3*
X29696Y17181D3*
X35431Y9942D3*
X24664Y7139D3*
X21916Y14019D3*
X26118Y17994D3*
X29513Y16564D3*
X32759Y15084D3*
X23793Y13392D3*
X28034Y16675D3*
X29629Y17900D3*
X33198Y16895D3*
X22530Y11648D3*
X21333Y12712D3*
D17*
X35056Y19513D3*
X35903D3*
X33171Y19474D3*
X34018D3*
X31182D3*
X32029D3*
D18*
X36652Y17525D3*
Y16678D3*
D17*
X17317Y14979D3*
X18163D3*
X17344Y16315D3*
X18190D3*
X35374Y14647D3*
X34527D3*
D19*
X12486Y16838D3*
D20*
Y15838D3*
D19*
X16624Y18642D3*
D20*
X15624D3*
D21*
X9676Y16783D3*
D22*
X8495Y14815D3*
D23*
X7255Y16783D3*
D24*
X23962Y16386D3*
X22962D3*
D25*
X21962D3*
D24*
Y17386D3*
X22962D3*
X23962D3*
D26*
X30282Y10193D3*
X28522D3*
D27*
X10313Y9775D3*
Y11536D3*
G36*
X14113Y6840D2*
Y6614D1*
X13953Y6455D1*
X13727D1*
X13567Y6614D1*
Y6840D1*
X13727Y7000D1*
X13953D1*
X14113Y6840D1*
G37*
D28*
X13840Y5727D3*
G36*
X11107Y6855D2*
Y6629D1*
X10947Y6469D1*
X10721D1*
X10562Y6629D1*
Y6855D1*
X10721Y7015D1*
X10947D1*
X11107Y6855D1*
G37*
D28*
X10834Y5742D3*
D29*
X20658Y5845D3*
X22627D3*
X26564D3*
X28533D3*
X20749Y21599D3*
X22718D3*
X26655D3*
X28623D3*
D25*
X31809Y6447D3*
D24*
X32809D3*
X33809D3*
D25*
X40987Y18212D3*
D24*
Y17212D3*
Y16212D3*
D25*
X40992Y11190D3*
D24*
Y10190D3*
Y9190D3*
D25*
X40985Y14741D3*
D24*
Y13741D3*
Y12741D3*
D30*
X21291Y13341D3*
Y13841D3*
X18543Y7533D3*
Y7033D3*
X16713Y7544D3*
Y7044D3*
X22697Y13263D3*
Y13763D3*
X27016Y17864D3*
Y17364D3*
X28835Y17903D3*
Y17403D3*
D18*
X19409Y18288D3*
Y17441D3*
D31*
X26537Y10909D3*
Y11659D3*
Y12409D3*
X32433Y9757D3*
Y10507D3*
Y11257D3*
D32*
X20691Y9620D3*
X24084D3*
X24777Y10868D3*
Y14262D3*
X34500Y12691D3*
Y9297D3*
X28599Y12222D3*
Y15616D3*
X30239Y12195D3*
Y15588D3*
X25951Y8436D3*
X29345D3*
X13439Y12495D3*
Y9101D3*
X12232Y12492D3*
Y9098D3*
D34*
X35375Y18090D3*
X34875D3*
X34375D3*
X33875D3*
X33375D3*
X32875D3*
X32375D3*
X31875D3*
Y15925D3*
X32375D3*
X32875D3*
X33375D3*
X33875D3*
X34375D3*
X34875D3*
X35375D3*
D36*
X18580Y13533D3*
X18265D3*
X17950D3*
X17635D3*
X17320D3*
X17005D3*
X16690D3*
X16375D3*
D37*
X15706Y12864D3*
Y12549D3*
Y12234D3*
Y11919D3*
Y11604D3*
Y11289D3*
Y10974D3*
Y10659D3*
D36*
X16375Y9990D3*
X16690D3*
X17005D3*
X17320D3*
X17635D3*
X17950D3*
X18265D3*
X18580D3*
D37*
X19249Y10659D3*
Y10974D3*
Y11289D3*
Y11604D3*
Y11919D3*
Y12234D3*
Y12549D3*
Y12864D3*
D38*
X6316Y10190D3*
D39*
Y11749D3*
D40*
X11656Y20536D3*
D29*
X12656D3*
X13656D3*
M02*
