G04 DipTrace 2.4.0.2*
%INTopMask.gbr*%
%MOIN*%
%ADD25R,0.0709X0.0709*%
%ADD29C,0.0787*%
%ADD32C,0.0709*%
%ADD40R,0.0787X0.0787*%
%ADD41C,0.1772*%
%ADD51R,0.0866X0.0866*%
%ADD52C,0.126*%
%ADD54R,0.126X0.126*%
%ADD56R,0.0906X0.0276*%
%ADD58R,0.0276X0.0906*%
%ADD60R,0.0315X0.0866*%
%ADD62O,0.0866X0.0472*%
%ADD64R,0.0472X0.0472*%
%ADD66C,0.0866*%
%ADD67C,0.0669*%
%ADD69R,0.0906X0.0866*%
%ADD71R,0.0866X0.0906*%
%ADD73C,0.0787*%
%ADD75O,0.1457X0.2047*%
%ADD77O,0.2047X0.1457*%
%ADD79O,0.185X0.2441*%
%ADD82R,0.0787X0.063*%
%ADD84R,0.063X0.0787*%
%FSLAX44Y44*%
G04*
G70*
G90*
G75*
G01*
%LNTopMask*%
%LPD*%
D84*
X35056Y19513D3*
X35903D3*
X33171Y19474D3*
X34018D3*
X31182D3*
X32029D3*
D82*
X36652Y17525D3*
Y16678D3*
D84*
X17317Y14979D3*
X18163D3*
X17344Y16315D3*
X18190D3*
X35374Y14647D3*
X34527D3*
D25*
X12486Y16838D3*
D32*
Y15838D3*
D25*
X16624Y18642D3*
D32*
X15624D3*
D79*
X9676Y16783D3*
D77*
X8495Y14815D3*
D75*
X7255Y16783D3*
D73*
X23962Y16386D3*
X22962D3*
D40*
X21962D3*
D73*
Y17386D3*
X22962D3*
X23962D3*
D71*
X30282Y10193D3*
X28522D3*
D69*
X10313Y9775D3*
Y11536D3*
G36*
X14152Y6857D2*
Y6598D1*
X13969Y6415D1*
X13711D1*
X13528Y6598D1*
Y6857D1*
X13711Y7040D1*
X13969D1*
X14152Y6857D1*
G37*
D67*
X13840Y5727D3*
G36*
X11147Y6871D2*
Y6613D1*
X10964Y6430D1*
X10705D1*
X10522Y6613D1*
Y6871D1*
X10705Y7054D1*
X10964D1*
X11147Y6871D1*
G37*
D67*
X10834Y5742D3*
D66*
X20658Y5845D3*
X22627D3*
X26564D3*
X28533D3*
X20749Y21599D3*
X22718D3*
X26655D3*
X28623D3*
D40*
X31809Y6447D3*
D73*
X32809D3*
X33809D3*
D41*
X6111Y6120D3*
X5993Y21566D3*
X41214Y21442D3*
X41198Y6003D3*
D40*
X40987Y18212D3*
D73*
Y17212D3*
Y16212D3*
D40*
X40992Y11190D3*
D73*
Y10190D3*
Y9190D3*
D40*
X40985Y14741D3*
D73*
Y13741D3*
Y12741D3*
D64*
X21291Y13341D3*
Y13841D3*
X18543Y7533D3*
Y7033D3*
X16713Y7544D3*
Y7044D3*
X22697Y13263D3*
Y13763D3*
X27016Y17864D3*
Y17364D3*
X28835Y17903D3*
Y17403D3*
D82*
X19409Y18288D3*
Y17441D3*
D62*
X26537Y10909D3*
Y11659D3*
Y12409D3*
X32433Y9757D3*
Y10507D3*
Y11257D3*
D29*
X20691Y9620D3*
X24084D3*
X24777Y10868D3*
Y14262D3*
X34500Y12691D3*
Y9297D3*
X28599Y12222D3*
Y15616D3*
X30239Y12195D3*
Y15588D3*
X25951Y8436D3*
X29345D3*
X13439Y12495D3*
Y9101D3*
X12232Y12492D3*
Y9098D3*
D60*
X35375Y18090D3*
X34875D3*
X34375D3*
X33875D3*
X33375D3*
X32875D3*
X32375D3*
X31875D3*
Y15925D3*
X32375D3*
X32875D3*
X33375D3*
X33875D3*
X34375D3*
X34875D3*
X35375D3*
D58*
X18580Y13533D3*
X18265D3*
X17950D3*
X17635D3*
X17320D3*
X17005D3*
X16690D3*
X16375D3*
D56*
X15706Y12864D3*
Y12549D3*
Y12234D3*
Y11919D3*
Y11604D3*
Y11289D3*
Y10974D3*
Y10659D3*
D58*
X16375Y9990D3*
X16690D3*
X17005D3*
X17320D3*
X17635D3*
X17950D3*
X18265D3*
X18580D3*
D56*
X19249Y10659D3*
Y10974D3*
Y11289D3*
Y11604D3*
Y11919D3*
Y12234D3*
Y12549D3*
Y12864D3*
D54*
X6316Y10190D3*
D52*
Y11749D3*
D51*
X11656Y20536D3*
D66*
X12656D3*
X13656D3*
M02*
