G04 DipTrace 2.4.0.2*
%INTopPaste.gbr*%
%MOIN*%
%ADD57R,0.0748X0.0118*%
%ADD59R,0.0118X0.0748*%
%ADD61R,0.0157X0.0709*%
%ADD65R,0.0315X0.0315*%
%ADD70R,0.0748X0.0709*%
%ADD72R,0.0709X0.0748*%
%ADD83R,0.063X0.0472*%
%ADD85R,0.0472X0.063*%
%FSLAX44Y44*%
G04*
G70*
G90*
G75*
G01*
%LNTopPaste*%
%LPD*%
D85*
X35056Y19513D3*
X35903D3*
X33171Y19474D3*
X34018D3*
X31182D3*
X32029D3*
D83*
X36652Y17525D3*
Y16678D3*
D85*
X17317Y14979D3*
X18163D3*
X17344Y16315D3*
X18190D3*
X35374Y14647D3*
X34527D3*
D72*
X30282Y10193D3*
X28522D3*
D70*
X10313Y9775D3*
Y11536D3*
D65*
X21291Y13341D3*
Y13841D3*
X18543Y7533D3*
Y7033D3*
X16713Y7544D3*
Y7044D3*
X22697Y13263D3*
Y13763D3*
X27016Y17864D3*
Y17364D3*
X28835Y17903D3*
Y17403D3*
D83*
X19409Y18288D3*
Y17441D3*
D61*
X35375Y18090D3*
X34875D3*
X34375D3*
X33875D3*
X33375D3*
X32875D3*
X32375D3*
X31875D3*
Y15925D3*
X32375D3*
X32875D3*
X33375D3*
X33875D3*
X34375D3*
X34875D3*
X35375D3*
D59*
X18580Y13533D3*
X18265D3*
X17950D3*
X17635D3*
X17320D3*
X17005D3*
X16690D3*
X16375D3*
D57*
X15706Y12864D3*
Y12549D3*
Y12234D3*
Y11919D3*
Y11604D3*
Y11289D3*
Y10974D3*
Y10659D3*
D59*
X16375Y9990D3*
X16690D3*
X17005D3*
X17320D3*
X17635D3*
X17950D3*
X18265D3*
X18580D3*
D57*
X19249Y10659D3*
Y10974D3*
Y11289D3*
Y11604D3*
Y11919D3*
Y12234D3*
Y12549D3*
Y12864D3*
M02*
