G04 DipTrace 2.4.0.2*
%INTopSilk.gbr*%
%MOIN*%
%ADD10C,0.0098*%
%ADD33O,0.0377X0.0351*%
%ADD35C,0.025*%
%ADD86C,0.0062*%
%ADD87C,0.0108*%
%FSLAX44Y44*%
G04*
G70*
G90*
G75*
G01*
%LNTopSilk*%
%LPD*%
X35056Y19076D2*
D10*
X35869D1*
X35494D2*
Y19888D1*
X35056Y19951D2*
X35869D1*
X33171Y19037D2*
X33984D1*
X33609D2*
Y19849D1*
X33171Y19912D2*
X33984D1*
X31182Y19036D2*
X31995D1*
X31620D2*
Y19849D1*
X31182Y19911D2*
X31995D1*
X36214Y17524D2*
Y16712D1*
Y17087D2*
X37027D1*
X37089Y17524D2*
Y16712D1*
X17317Y14541D2*
X18129D1*
X17754D2*
Y15354D1*
X17317Y15416D2*
X18129D1*
X17344Y15878D2*
X18156D1*
X17781D2*
Y16690D1*
X17344Y16753D2*
X18156D1*
X35374Y15085D2*
X34561D1*
X34936D2*
Y14272D1*
X35374Y14210D2*
X34561D1*
X12367Y17637D2*
X12604D1*
X12486Y17755D2*
Y17519D1*
X11486Y16337D2*
G02X11486Y16337I1000J0D01*
G01*
X17422Y18761D2*
Y18524D1*
X17541Y18642D2*
X17305D1*
X15124D2*
G02X15124Y18642I1000J0D01*
G01*
X7363Y14783D2*
X4301D1*
Y18033D1*
Y17970D2*
Y18283D1*
X9676D1*
X21337Y18011D2*
X24650D1*
Y15698D1*
X21337D1*
Y18011D1*
X24837Y15980D2*
G02X24837Y15980I31J0D01*
G01*
X29595Y9693D2*
Y10693D1*
X29658Y9693D2*
X29095D1*
Y10693D1*
X29658D1*
Y9693D1*
X29533D2*
Y10693D1*
X29470Y9693D2*
Y10693D1*
X9813Y10463D2*
X10813D1*
X9813Y10400D2*
X10813D1*
Y10962D1*
X9813D1*
Y10400D1*
Y10525D2*
X10813D1*
X9813Y10588D2*
X10813D1*
X14278Y7227D2*
G02X13403Y7227I-438J-914D01*
G01*
X14215D1*
X11272Y7242D2*
G02X10397Y7242I-438J-914D01*
G01*
X11209D1*
X19971Y7282D2*
X29283D1*
Y4532D1*
X19971D1*
Y7282D1*
X20062Y23037D2*
X29374D1*
Y20287D1*
X20062D1*
Y23037D1*
X31247Y7009D2*
X34372D1*
Y5884D1*
X31247D1*
Y7009D1*
X42112Y18712D2*
X39737D1*
Y15712D1*
X42112D1*
Y18712D1*
X41549D2*
Y15712D1*
X42117Y11690D2*
X39742D1*
Y8690D1*
X42117D1*
Y11690D1*
X41554D2*
Y8690D1*
X42110Y15241D2*
X39735D1*
Y12241D1*
X42110D1*
Y15241D1*
X41548D2*
Y12241D1*
X21604Y13904D2*
X21854Y13654D1*
Y13591D2*
X21604Y13341D1*
X18231Y6970D2*
X17981Y7220D1*
Y7283D2*
X18231Y7533D1*
X16400Y6981D2*
X16150Y7231D1*
Y7294D2*
X16400Y7544D1*
X23010Y13826D2*
X23260Y13576D1*
Y13513D2*
X23010Y13263D1*
X26703Y17301D2*
X26453Y17551D1*
Y17614D2*
X26703Y17864D1*
X28523Y17340D2*
X28273Y17590D1*
Y17653D2*
X28523Y17903D1*
X18972Y18288D2*
Y17475D1*
Y17850D2*
X19784D1*
X19847Y18288D2*
Y17475D1*
X27099Y10972D2*
Y12347D1*
X32995Y9820D2*
Y11195D1*
X21316Y10058D2*
X23441D1*
Y9183D1*
X21316D1*
Y10058D1*
X24340Y11493D2*
X25215D1*
Y13618D1*
X24340D1*
Y11493D1*
X34938Y12066D2*
X34063D1*
Y9941D1*
X34938D1*
Y12066D1*
X28162Y12847D2*
X29037D1*
Y14972D1*
X28162D1*
Y12847D1*
X29802Y12819D2*
X30677D1*
Y14944D1*
X29802D1*
Y12819D1*
X26576Y8873D2*
X28701D1*
Y7998D1*
X26576D1*
Y8873D1*
X13876Y11870D2*
X13001D1*
Y9745D1*
X13876D1*
Y11870D1*
X12670Y11867D2*
X11795D1*
Y9742D1*
X12670D1*
Y11867D1*
X35710Y16492D2*
X31540D1*
Y17523D1*
X35710D1*
Y16492D1*
D33*
X35376Y17270D3*
X18665Y12949D2*
D10*
X16290D1*
Y10574D1*
X18665D1*
Y12949D1*
D35*
X18977Y13324D3*
G36*
X18665Y12949D2*
X18165D1*
Y12387D1*
X18665D1*
Y12949D1*
G37*
X4316Y9190D2*
D10*
X8691D1*
Y12627D1*
X4316D1*
Y9190D1*
X5191Y9252D2*
Y12627D1*
X11093Y21411D2*
X14218D1*
Y19974D1*
X11093D1*
Y21411D1*
Y21162D2*
X14218D1*
X35317Y20441D2*
D86*
X35298Y20479D1*
X35260Y20518D1*
X35222Y20537D1*
X35145D1*
X35107Y20518D1*
X35069Y20479D1*
X35049Y20441D1*
X35030Y20384D1*
Y20288D1*
X35049Y20231D1*
X35069Y20192D1*
X35107Y20154D1*
X35145Y20135D1*
X35222D1*
X35260Y20154D1*
X35298Y20192D1*
X35317Y20231D1*
X35441Y20460D2*
X35479Y20479D1*
X35537Y20536D1*
Y20135D1*
X35775Y20536D2*
X35718Y20517D1*
X35679Y20460D1*
X35660Y20364D1*
Y20307D1*
X35679Y20211D1*
X35718Y20154D1*
X35775Y20135D1*
X35813D1*
X35871Y20154D1*
X35909Y20211D1*
X35928Y20307D1*
Y20364D1*
X35909Y20460D1*
X35871Y20517D1*
X35813Y20536D1*
X35775D1*
X35909Y20460D2*
X35679Y20211D1*
X33519Y20402D2*
X33500Y20440D1*
X33461Y20479D1*
X33423Y20498D1*
X33347D1*
X33308Y20479D1*
X33270Y20440D1*
X33251Y20402D1*
X33232Y20345D1*
Y20249D1*
X33251Y20192D1*
X33270Y20153D1*
X33308Y20115D1*
X33347Y20096D1*
X33423D1*
X33461Y20115D1*
X33500Y20153D1*
X33519Y20192D1*
X33642Y20421D2*
X33681Y20440D1*
X33738Y20497D1*
Y20096D1*
X33862Y20421D2*
X33900Y20440D1*
X33958Y20497D1*
Y20096D1*
X31443Y20401D2*
X31424Y20439D1*
X31386Y20478D1*
X31348Y20497D1*
X31271D1*
X31233Y20478D1*
X31195Y20439D1*
X31175Y20401D1*
X31156Y20344D1*
Y20248D1*
X31175Y20191D1*
X31195Y20152D1*
X31233Y20114D1*
X31271Y20095D1*
X31348D1*
X31386Y20114D1*
X31424Y20152D1*
X31443Y20191D1*
X31567Y20420D2*
X31605Y20439D1*
X31663Y20496D1*
Y20095D1*
X31806Y20401D2*
Y20420D1*
X31825Y20458D1*
X31844Y20477D1*
X31882Y20496D1*
X31959D1*
X31997Y20477D1*
X32016Y20458D1*
X32035Y20420D1*
Y20382D1*
X32016Y20343D1*
X31978Y20286D1*
X31786Y20095D1*
X32054D1*
X37451Y16929D2*
X37413Y16910D1*
X37375Y16871D1*
X37356Y16833D1*
Y16757D1*
X37375Y16718D1*
X37413Y16680D1*
X37451Y16661D1*
X37509Y16642D1*
X37605D1*
X37662Y16661D1*
X37700Y16680D1*
X37738Y16718D1*
X37758Y16757D1*
Y16833D1*
X37738Y16871D1*
X37700Y16910D1*
X37662Y16929D1*
X37433Y17052D2*
X37413Y17091D1*
X37356Y17148D1*
X37758D1*
X37356Y17310D2*
Y17520D1*
X37509Y17406D1*
Y17463D1*
X37528Y17501D1*
X37547Y17520D1*
X37605Y17539D1*
X37643D1*
X37700Y17520D1*
X37739Y17482D1*
X37758Y17425D1*
Y17367D1*
X37739Y17310D1*
X37719Y17291D1*
X37681Y17272D1*
X16303Y15116D2*
X16284Y15154D1*
X16246Y15192D1*
X16208Y15211D1*
X16131D1*
X16093Y15192D1*
X16055Y15154D1*
X16035Y15116D1*
X16016Y15058D1*
Y14962D1*
X16035Y14905D1*
X16055Y14867D1*
X16093Y14829D1*
X16131Y14809D1*
X16208D1*
X16246Y14829D1*
X16284Y14867D1*
X16303Y14905D1*
X16427Y15134D2*
X16465Y15154D1*
X16523Y15211D1*
Y14809D1*
X16876Y15211D2*
X16685D1*
X16666Y15039D1*
X16685Y15058D1*
X16742Y15077D1*
X16799D1*
X16857Y15058D1*
X16895Y15020D1*
X16914Y14962D1*
Y14924D1*
X16895Y14867D1*
X16857Y14828D1*
X16799Y14809D1*
X16742D1*
X16685Y14828D1*
X16666Y14848D1*
X16646Y14886D1*
X16328Y16547D2*
X16309Y16585D1*
X16271Y16623D1*
X16233Y16642D1*
X16156D1*
X16118Y16623D1*
X16080Y16585D1*
X16060Y16547D1*
X16041Y16489D1*
Y16393D1*
X16060Y16336D1*
X16080Y16298D1*
X16118Y16260D1*
X16156Y16240D1*
X16233D1*
X16271Y16260D1*
X16309Y16298D1*
X16328Y16336D1*
X16452Y16565D2*
X16490Y16585D1*
X16548Y16642D1*
Y16240D1*
X16901Y16585D2*
X16882Y16623D1*
X16824Y16642D1*
X16786D1*
X16729Y16623D1*
X16690Y16565D1*
X16671Y16470D1*
Y16374D1*
X16690Y16298D1*
X16729Y16259D1*
X16786Y16240D1*
X16805D1*
X16862Y16259D1*
X16901Y16298D1*
X16920Y16355D1*
Y16374D1*
X16901Y16432D1*
X16862Y16470D1*
X16805Y16489D1*
X16786D1*
X16729Y16470D1*
X16690Y16432D1*
X16671Y16374D1*
X36118Y14785D2*
X36099Y14823D1*
X36061Y14862D1*
X36023Y14881D1*
X35946D1*
X35908Y14862D1*
X35870Y14823D1*
X35850Y14785D1*
X35831Y14728D1*
Y14632D1*
X35850Y14575D1*
X35870Y14536D1*
X35908Y14498D1*
X35946Y14479D1*
X36023D1*
X36061Y14498D1*
X36099Y14536D1*
X36118Y14575D1*
X36242Y14804D2*
X36280Y14823D1*
X36338Y14880D1*
Y14479D1*
X36538D2*
X36729Y14880D1*
X36461D1*
X12324Y18245D2*
X12305Y18283D1*
X12266Y18321D1*
X12228Y18340D1*
X12152D1*
X12113Y18321D1*
X12075Y18283D1*
X12056Y18245D1*
X12037Y18188D1*
Y18092D1*
X12056Y18035D1*
X12075Y17996D1*
X12113Y17958D1*
X12152Y17939D1*
X12228D1*
X12266Y17958D1*
X12305Y17996D1*
X12324Y18035D1*
X12447Y18264D2*
X12486Y18283D1*
X12543Y18340D1*
Y17939D1*
X12762Y18340D2*
X12705Y18321D1*
X12686Y18283D1*
Y18245D1*
X12705Y18207D1*
X12743Y18187D1*
X12820Y18168D1*
X12877Y18149D1*
X12915Y18111D1*
X12934Y18073D1*
Y18015D1*
X12915Y17977D1*
X12896Y17958D1*
X12839Y17939D1*
X12762D1*
X12705Y17958D1*
X12686Y17977D1*
X12667Y18015D1*
Y18073D1*
X12686Y18111D1*
X12724Y18149D1*
X12781Y18168D1*
X12858Y18187D1*
X12896Y18207D1*
X12915Y18245D1*
Y18283D1*
X12896Y18321D1*
X12839Y18340D1*
X12762D1*
X16180Y20133D2*
X16161Y20171D1*
X16122Y20209D1*
X16084Y20228D1*
X16008D1*
X15969Y20209D1*
X15931Y20171D1*
X15912Y20133D1*
X15893Y20075D1*
Y19979D1*
X15912Y19922D1*
X15931Y19884D1*
X15969Y19846D1*
X16008Y19826D1*
X16084D1*
X16122Y19846D1*
X16161Y19884D1*
X16180Y19922D1*
X16303Y20151D2*
X16342Y20171D1*
X16399Y20228D1*
Y19826D1*
X16772Y20094D2*
X16752Y20037D1*
X16714Y19998D1*
X16657Y19979D1*
X16638D1*
X16580Y19998D1*
X16542Y20037D1*
X16523Y20094D1*
Y20113D1*
X16542Y20171D1*
X16580Y20209D1*
X16638Y20228D1*
X16657D1*
X16714Y20209D1*
X16752Y20171D1*
X16772Y20094D1*
Y19998D1*
X16752Y19903D1*
X16714Y19845D1*
X16657Y19826D1*
X16619D1*
X16561Y19845D1*
X16542Y19884D1*
X5024Y16641D2*
X5005Y16679D1*
X4967Y16717D1*
X4929Y16736D1*
X4852D1*
X4814Y16717D1*
X4776Y16679D1*
X4756Y16641D1*
X4737Y16583D1*
Y16487D1*
X4756Y16430D1*
X4776Y16392D1*
X4814Y16354D1*
X4852Y16334D1*
X4929D1*
X4967Y16354D1*
X5005Y16392D1*
X5024Y16430D1*
X5263Y16736D2*
X5224Y16717D1*
X5186Y16679D1*
X5167Y16641D1*
X5148Y16583D1*
Y16487D1*
X5167Y16430D1*
X5186Y16392D1*
X5224Y16354D1*
X5263Y16334D1*
X5339D1*
X5377Y16354D1*
X5416Y16392D1*
X5435Y16430D1*
X5454Y16487D1*
Y16583D1*
X5435Y16641D1*
X5416Y16679D1*
X5377Y16717D1*
X5339Y16736D1*
X5263D1*
X5845D2*
Y16334D1*
X5577Y16736D1*
Y16334D1*
X5988Y16640D2*
Y16659D1*
X6007Y16698D1*
X6026Y16717D1*
X6065Y16736D1*
X6141D1*
X6179Y16717D1*
X6198Y16698D1*
X6218Y16659D1*
Y16621D1*
X6198Y16583D1*
X6160Y16526D1*
X5969Y16334D1*
X6237D1*
X22656Y18501D2*
X22637Y18539D1*
X22598Y18578D1*
X22560Y18597D1*
X22484D1*
X22445Y18578D1*
X22407Y18539D1*
X22388Y18501D1*
X22369Y18444D1*
Y18348D1*
X22388Y18291D1*
X22407Y18252D1*
X22445Y18214D1*
X22484Y18195D1*
X22560D1*
X22598Y18214D1*
X22637Y18252D1*
X22656Y18291D1*
X22894Y18597D2*
X22856Y18578D1*
X22818Y18539D1*
X22798Y18501D1*
X22779Y18444D1*
Y18348D1*
X22798Y18291D1*
X22818Y18252D1*
X22856Y18214D1*
X22894Y18195D1*
X22971D1*
X23009Y18214D1*
X23047Y18252D1*
X23066Y18291D1*
X23085Y18348D1*
Y18444D1*
X23066Y18501D1*
X23047Y18539D1*
X23009Y18578D1*
X22971Y18597D1*
X22894D1*
X23477D2*
Y18195D1*
X23209Y18597D1*
Y18195D1*
X23830Y18596D2*
X23639D1*
X23620Y18424D1*
X23639Y18443D1*
X23696Y18463D1*
X23753D1*
X23811Y18443D1*
X23849Y18405D1*
X23868Y18348D1*
Y18310D1*
X23849Y18252D1*
X23811Y18214D1*
X23753Y18195D1*
X23696D1*
X23639Y18214D1*
X23620Y18233D1*
X23600Y18271D1*
X29158Y11279D2*
Y10877D1*
X29292D1*
X29350Y10897D1*
X29388Y10935D1*
X29407Y10973D1*
X29426Y11030D1*
Y11126D1*
X29407Y11183D1*
X29388Y11222D1*
X29350Y11260D1*
X29292Y11279D1*
X29158D1*
X29550Y11202D2*
X29588Y11222D1*
X29646Y11279D1*
Y10877D1*
X9984Y12516D2*
Y12114D1*
X10117D1*
X10175Y12133D1*
X10213Y12171D1*
X10232Y12210D1*
X10251Y12267D1*
Y12363D1*
X10232Y12420D1*
X10213Y12458D1*
X10175Y12497D1*
X10117Y12516D1*
X9984D1*
X10394Y12420D2*
Y12439D1*
X10413Y12477D1*
X10432Y12496D1*
X10471Y12515D1*
X10547D1*
X10585Y12496D1*
X10604Y12477D1*
X10624Y12439D1*
Y12401D1*
X10604Y12362D1*
X10566Y12305D1*
X10375Y12114D1*
X10643D1*
X13501Y7813D2*
Y7411D1*
X13635D1*
X13692Y7431D1*
X13731Y7469D1*
X13750Y7507D1*
X13769Y7564D1*
Y7660D1*
X13750Y7718D1*
X13731Y7756D1*
X13692Y7794D1*
X13635Y7813D1*
X13501D1*
X14084Y7411D2*
Y7813D1*
X13892Y7545D1*
X14179D1*
X10505Y7828D2*
Y7426D1*
X10639D1*
X10696Y7445D1*
X10735Y7483D1*
X10754Y7522D1*
X10773Y7579D1*
Y7675D1*
X10754Y7732D1*
X10735Y7770D1*
X10696Y7809D1*
X10639Y7828D1*
X10505D1*
X11126Y7827D2*
X10935D1*
X10916Y7655D1*
X10935Y7674D1*
X10992Y7694D1*
X11049D1*
X11107Y7674D1*
X11145Y7636D1*
X11164Y7579D1*
Y7541D1*
X11145Y7483D1*
X11107Y7445D1*
X11049Y7426D1*
X10992D1*
X10935Y7445D1*
X10916Y7464D1*
X10896Y7502D1*
X19178Y6021D2*
X18929D1*
Y5619D1*
Y5830D2*
X19082D1*
X19301Y5944D2*
X19340Y5964D1*
X19397Y6021D1*
Y5619D1*
X19098Y21778D2*
X18850D1*
Y21376D1*
Y21586D2*
X19002D1*
X19241Y21682D2*
Y21701D1*
X19260Y21739D1*
X19279Y21758D1*
X19318Y21777D1*
X19394D1*
X19432Y21758D1*
X19451Y21739D1*
X19471Y21701D1*
Y21663D1*
X19451Y21624D1*
X19413Y21567D1*
X19222Y21376D1*
X19490D1*
X32566Y7595D2*
Y7193D1*
X32834Y7595D2*
Y7193D1*
X32566Y7404D2*
X32834D1*
X32957Y7518D2*
X32996Y7538D1*
X33053Y7595D1*
Y7193D1*
X42539Y17311D2*
Y17005D1*
X42520Y16948D1*
X42500Y16929D1*
X42462Y16909D1*
X42424D1*
X42386Y16929D1*
X42367Y16948D1*
X42347Y17005D1*
Y17043D1*
X42682Y17215D2*
Y17234D1*
X42701Y17273D1*
X42720Y17292D1*
X42758Y17311D1*
X42835D1*
X42873Y17292D1*
X42892Y17273D1*
X42911Y17234D1*
Y17196D1*
X42892Y17158D1*
X42854Y17101D1*
X42662Y16909D1*
X42930D1*
X42481Y10436D2*
Y10130D1*
X42462Y10073D1*
X42442Y10054D1*
X42404Y10034D1*
X42366D1*
X42328Y10054D1*
X42309Y10073D1*
X42289Y10130D1*
Y10168D1*
X42834Y10436D2*
X42643D1*
X42624Y10264D1*
X42643Y10283D1*
X42700Y10302D1*
X42757D1*
X42815Y10283D1*
X42853Y10245D1*
X42872Y10187D1*
Y10149D1*
X42853Y10092D1*
X42815Y10053D1*
X42757Y10034D1*
X42700D1*
X42643Y10053D1*
X42624Y10073D1*
X42604Y10111D1*
X42547Y13715D2*
Y13409D1*
X42528Y13351D1*
X42509Y13332D1*
X42471Y13313D1*
X42432D1*
X42394Y13332D1*
X42375Y13351D1*
X42356Y13409D1*
Y13447D1*
X42900Y13657D2*
X42881Y13695D1*
X42824Y13714D1*
X42786D1*
X42728Y13695D1*
X42690Y13638D1*
X42671Y13542D1*
Y13447D1*
X42690Y13370D1*
X42728Y13332D1*
X42786Y13313D1*
X42805D1*
X42862Y13332D1*
X42900Y13370D1*
X42919Y13428D1*
Y13447D1*
X42900Y13504D1*
X42862Y13542D1*
X42805Y13561D1*
X42786D1*
X42728Y13542D1*
X42690Y13504D1*
X42671Y13447D1*
X21374Y14624D2*
Y14318D1*
X21355Y14260D1*
X21335Y14241D1*
X21297Y14222D1*
X21259D1*
X21221Y14241D1*
X21202Y14260D1*
X21183Y14318D1*
Y14356D1*
X21574Y14222D2*
X21765Y14623D1*
X21497D1*
X18261Y8315D2*
Y8010D1*
X18242Y7952D1*
X18222Y7933D1*
X18184Y7914D1*
X18146D1*
X18108Y7933D1*
X18089Y7952D1*
X18069Y8010D1*
Y8048D1*
X18480Y8315D2*
X18423Y8296D1*
X18403Y8258D1*
Y8220D1*
X18423Y8182D1*
X18461Y8162D1*
X18537Y8143D1*
X18595Y8124D1*
X18633Y8086D1*
X18652Y8048D1*
Y7990D1*
X18633Y7952D1*
X18614Y7933D1*
X18556Y7914D1*
X18480D1*
X18423Y7933D1*
X18403Y7952D1*
X18384Y7990D1*
Y8048D1*
X18403Y8086D1*
X18442Y8124D1*
X18499Y8143D1*
X18575Y8162D1*
X18614Y8182D1*
X18633Y8220D1*
Y8258D1*
X18614Y8296D1*
X18556Y8315D1*
X18480D1*
X16439Y8327D2*
Y8021D1*
X16420Y7963D1*
X16401Y7944D1*
X16363Y7925D1*
X16325D1*
X16286Y7944D1*
X16267Y7963D1*
X16248Y8021D1*
Y8059D1*
X16812Y8193D2*
X16792Y8135D1*
X16754Y8097D1*
X16697Y8078D1*
X16678D1*
X16620Y8097D1*
X16582Y8135D1*
X16563Y8193D1*
Y8212D1*
X16582Y8269D1*
X16620Y8307D1*
X16678Y8326D1*
X16697D1*
X16754Y8307D1*
X16792Y8269D1*
X16812Y8193D1*
Y8097D1*
X16792Y8001D1*
X16754Y7944D1*
X16697Y7925D1*
X16659D1*
X16601Y7944D1*
X16582Y7982D1*
X22472Y14553D2*
Y14247D1*
X22453Y14190D1*
X22434Y14171D1*
X22396Y14151D1*
X22357D1*
X22319Y14171D1*
X22300Y14190D1*
X22281Y14247D1*
Y14285D1*
X22596Y14476D2*
X22634Y14496D1*
X22692Y14553D1*
Y14151D1*
X22930Y14553D2*
X22873Y14534D1*
X22834Y14476D1*
X22815Y14381D1*
Y14323D1*
X22834Y14228D1*
X22873Y14170D1*
X22930Y14151D1*
X22968D1*
X23026Y14170D1*
X23064Y14228D1*
X23083Y14323D1*
Y14381D1*
X23064Y14476D1*
X23026Y14534D1*
X22968Y14553D1*
X22930D1*
X23064Y14476D2*
X22834Y14228D1*
X25867Y17490D2*
X26173D1*
X26231Y17471D1*
X26250Y17452D1*
X26269Y17414D1*
Y17375D1*
X26250Y17337D1*
X26231Y17318D1*
X26173Y17299D1*
X26135D1*
X25944Y17614D2*
X25925Y17652D1*
X25868Y17710D1*
X26269D1*
X25944Y17833D2*
X25925Y17872D1*
X25868Y17929D1*
X26269D1*
X27687Y17443D2*
X27993D1*
X28051Y17424D1*
X28070Y17405D1*
X28089Y17367D1*
Y17328D1*
X28070Y17290D1*
X28051Y17271D1*
X27993Y17252D1*
X27955D1*
X27764Y17567D2*
X27745Y17605D1*
X27688Y17662D1*
X28089D1*
X27783Y17805D2*
X27764D1*
X27726Y17824D1*
X27707Y17843D1*
X27688Y17882D1*
Y17958D1*
X27707Y17996D1*
X27726Y18015D1*
X27764Y18035D1*
X27802D1*
X27841Y18015D1*
X27898Y17977D1*
X28089Y17786D1*
Y18054D1*
X19089Y19149D2*
Y18747D1*
X19319D1*
X19634D2*
Y19149D1*
X19442Y18881D1*
X19729D1*
X26473Y13192D2*
X26435Y13173D1*
X26397Y13135D1*
X26378Y13096D1*
X26358Y13039D1*
Y12943D1*
X26378Y12886D1*
X26397Y12848D1*
X26435Y12809D1*
X26473Y12790D1*
X26550D1*
X26588Y12809D1*
X26626Y12848D1*
X26645Y12886D1*
X26665Y12943D1*
Y13039D1*
X26645Y13096D1*
X26626Y13135D1*
X26588Y13173D1*
X26550Y13192D1*
X26473D1*
X26531Y12867D2*
X26645Y12752D1*
X26788Y13115D2*
X26827Y13134D1*
X26884Y13191D1*
Y12790D1*
X32283Y12040D2*
X32245Y12021D1*
X32207Y11983D1*
X32188Y11945D1*
X32168Y11887D1*
Y11792D1*
X32188Y11734D1*
X32207Y11696D1*
X32245Y11658D1*
X32283Y11639D1*
X32360D1*
X32398Y11658D1*
X32436Y11696D1*
X32455Y11734D1*
X32475Y11792D1*
Y11887D1*
X32455Y11945D1*
X32436Y11983D1*
X32398Y12021D1*
X32360Y12040D1*
X32283D1*
X32341Y11715D2*
X32455Y11600D1*
X32618Y11944D2*
Y11963D1*
X32637Y12002D1*
X32656Y12021D1*
X32694Y12040D1*
X32771D1*
X32809Y12021D1*
X32828Y12002D1*
X32847Y11963D1*
Y11925D1*
X32828Y11887D1*
X32790Y11830D1*
X32598Y11638D1*
X32866D1*
X22144Y9654D2*
X22316D1*
X22373Y9673D1*
X22393Y9692D1*
X22412Y9731D1*
Y9769D1*
X22393Y9807D1*
X22373Y9826D1*
X22316Y9845D1*
X22144D1*
Y9444D1*
X22278Y9654D2*
X22412Y9444D1*
X22535Y9769D2*
X22574Y9788D1*
X22631Y9845D1*
Y9444D1*
X24743Y12235D2*
Y12407D1*
X24724Y12465D1*
X24705Y12484D1*
X24667Y12503D1*
X24628D1*
X24590Y12484D1*
X24571Y12465D1*
X24552Y12407D1*
Y12235D1*
X24954D1*
X24743Y12369D2*
X24954Y12503D1*
X24648Y12646D2*
X24629D1*
X24590Y12665D1*
X24571Y12684D1*
X24552Y12723D1*
Y12799D1*
X24571Y12837D1*
X24590Y12856D1*
X24629Y12875D1*
X24667D1*
X24705Y12856D1*
X24762Y12818D1*
X24954Y12627D1*
Y12895D1*
X34467Y10665D2*
Y10837D1*
X34447Y10894D1*
X34428Y10913D1*
X34390Y10932D1*
X34352D1*
X34314Y10913D1*
X34294Y10894D1*
X34275Y10837D1*
Y10665D1*
X34677D1*
X34467Y10798D2*
X34677Y10932D1*
X34276Y11094D2*
Y11304D1*
X34429Y11190D1*
Y11247D1*
X34448Y11285D1*
X34467Y11304D1*
X34524Y11324D1*
X34562D1*
X34620Y11304D1*
X34658Y11266D1*
X34677Y11209D1*
Y11151D1*
X34658Y11094D1*
X34639Y11075D1*
X34601Y11056D1*
X28566Y13580D2*
Y13752D1*
X28546Y13810D1*
X28527Y13829D1*
X28489Y13848D1*
X28451D1*
X28413Y13829D1*
X28393Y13810D1*
X28374Y13752D1*
Y13580D1*
X28776D1*
X28566Y13714D2*
X28776Y13848D1*
Y14163D2*
X28375D1*
X28642Y13972D1*
Y14258D1*
X30206Y13562D2*
Y13734D1*
X30186Y13791D1*
X30167Y13811D1*
X30129Y13830D1*
X30091D1*
X30053Y13811D1*
X30033Y13791D1*
X30014Y13734D1*
Y13562D1*
X30416D1*
X30206Y13696D2*
X30416Y13830D1*
X30015Y14183D2*
Y13992D1*
X30187Y13973D1*
X30168Y13992D1*
X30148Y14049D1*
Y14106D1*
X30168Y14164D1*
X30206Y14202D1*
X30263Y14221D1*
X30301D1*
X30359Y14202D1*
X30397Y14164D1*
X30416Y14106D1*
Y14049D1*
X30397Y13992D1*
X30378Y13973D1*
X30340Y13953D1*
X27328Y8470D2*
X27500D1*
X27558Y8489D1*
X27577Y8508D1*
X27596Y8546D1*
Y8584D1*
X27577Y8623D1*
X27558Y8642D1*
X27500Y8661D1*
X27328D1*
Y8259D1*
X27462Y8470D2*
X27596Y8259D1*
X27949Y8603D2*
X27930Y8642D1*
X27873Y8661D1*
X27835D1*
X27777Y8642D1*
X27739Y8584D1*
X27720Y8489D1*
Y8393D1*
X27739Y8317D1*
X27777Y8278D1*
X27835Y8259D1*
X27854D1*
X27911Y8278D1*
X27949Y8317D1*
X27968Y8374D1*
Y8393D1*
X27949Y8451D1*
X27911Y8489D1*
X27854Y8508D1*
X27835D1*
X27777Y8489D1*
X27739Y8451D1*
X27720Y8393D1*
X13405Y10283D2*
Y10455D1*
X13386Y10512D1*
X13367Y10531D1*
X13329Y10550D1*
X13290D1*
X13252Y10531D1*
X13233Y10512D1*
X13214Y10455D1*
Y10283D1*
X13616D1*
X13405Y10416D2*
X13616Y10550D1*
X13310Y10693D2*
X13291D1*
X13252Y10712D1*
X13233Y10731D1*
X13214Y10770D1*
Y10846D1*
X13233Y10884D1*
X13252Y10903D1*
X13291Y10923D1*
X13329D1*
X13367Y10903D1*
X13424Y10865D1*
X13616Y10674D1*
Y10942D1*
X13271Y11295D2*
X13233Y11276D1*
X13214Y11218D1*
Y11180D1*
X13233Y11123D1*
X13291Y11084D1*
X13386Y11065D1*
X13482D1*
X13558Y11084D1*
X13597Y11123D1*
X13616Y11180D1*
Y11199D1*
X13597Y11256D1*
X13558Y11295D1*
X13501Y11314D1*
X13482D1*
X13424Y11295D1*
X13386Y11256D1*
X13367Y11199D1*
Y11180D1*
X13386Y11123D1*
X13424Y11084D1*
X13482Y11065D1*
X12199Y10270D2*
Y10442D1*
X12179Y10499D1*
X12160Y10519D1*
X12122Y10538D1*
X12084D1*
X12046Y10519D1*
X12026Y10499D1*
X12007Y10442D1*
Y10270D1*
X12409D1*
X12199Y10404D2*
X12409Y10538D1*
X12103Y10680D2*
X12084D1*
X12046Y10699D1*
X12027Y10719D1*
X12008Y10757D1*
Y10833D1*
X12027Y10871D1*
X12046Y10891D1*
X12084Y10910D1*
X12122D1*
X12161Y10891D1*
X12218Y10852D1*
X12409Y10661D1*
Y10929D1*
Y11129D2*
X12008Y11320D1*
Y11052D1*
X33381Y17233D2*
Y16946D1*
X33400Y16888D1*
X33439Y16850D1*
X33496Y16831D1*
X33534D1*
X33592Y16850D1*
X33630Y16888D1*
X33649Y16946D1*
Y17233D1*
X33773Y17156D2*
X33811Y17175D1*
X33869Y17232D1*
Y16831D1*
X17148Y11987D2*
Y11700D1*
X17167Y11642D1*
X17205Y11604D1*
X17262Y11585D1*
X17301D1*
X17358Y11604D1*
X17396Y11642D1*
X17415Y11700D1*
Y11987D1*
X17558Y11891D2*
Y11910D1*
X17577Y11948D1*
X17596Y11967D1*
X17635Y11986D1*
X17711D1*
X17749Y11967D1*
X17768Y11948D1*
X17788Y11910D1*
Y11872D1*
X17768Y11833D1*
X17730Y11776D1*
X17539Y11585D1*
X17807D1*
X7282Y11018D2*
Y10731D1*
X7301Y10673D1*
X7340Y10635D1*
X7397Y10616D1*
X7435D1*
X7493Y10635D1*
X7531Y10673D1*
X7550Y10731D1*
Y11018D1*
X7712Y11017D2*
X7922D1*
X7807Y10864D1*
X7865D1*
X7903Y10845D1*
X7922Y10826D1*
X7941Y10769D1*
Y10731D1*
X7922Y10673D1*
X7884Y10635D1*
X7826Y10616D1*
X7769D1*
X7712Y10635D1*
X7693Y10654D1*
X7674Y10692D1*
X12317Y21997D2*
Y21710D1*
X12336Y21653D1*
X12374Y21615D1*
X12432Y21595D1*
X12470D1*
X12527Y21615D1*
X12566Y21653D1*
X12585Y21710D1*
Y21997D1*
X12900Y21595D2*
Y21997D1*
X12708Y21729D1*
X12995D1*
X38745Y15769D2*
D87*
Y16070D1*
X38711Y16171D1*
X38678Y16205D1*
X38612Y16238D1*
X38544D1*
X38478Y16205D1*
X38444Y16171D1*
X38410Y16070D1*
Y15769D1*
X39114D1*
X38745Y16003D2*
X39114Y16238D1*
X38511Y16923D2*
X38444Y16856D1*
X38410Y16756D1*
Y16622D1*
X38444Y16521D1*
X38511Y16454D1*
X38578D1*
X38645Y16488D1*
X38678Y16521D1*
X38711Y16588D1*
X38779Y16789D1*
X38812Y16856D1*
X38846Y16890D1*
X38913Y16923D1*
X39013D1*
X39080Y16856D1*
X39114Y16756D1*
Y16622D1*
X39080Y16521D1*
X39013Y16454D1*
X38578Y17173D2*
X38545D1*
X38478Y17206D1*
X38444Y17240D1*
X38411Y17307D1*
Y17441D1*
X38444Y17507D1*
X38478Y17541D1*
X38545Y17575D1*
X38612D1*
X38679Y17541D1*
X38779Y17474D1*
X39114Y17139D1*
Y17608D1*
X38411Y17891D2*
Y18259D1*
X38679Y18059D1*
Y18159D1*
X38712Y18226D1*
X38745Y18259D1*
X38846Y18293D1*
X38913D1*
X39013Y18259D1*
X39080Y18192D1*
X39114Y18092D1*
Y17991D1*
X39080Y17891D1*
X39046Y17858D1*
X38980Y17824D1*
X38578Y18543D2*
X38545D1*
X38478Y18576D1*
X38444Y18610D1*
X38411Y18677D1*
Y18811D1*
X38444Y18877D1*
X38478Y18911D1*
X38545Y18945D1*
X38612D1*
X38679Y18911D1*
X38779Y18844D1*
X39114Y18509D1*
Y18978D1*
X37534Y10700D2*
X37467Y10633D1*
X37434Y10565D1*
Y10466D1*
X37467Y10398D1*
X37534Y10332D1*
X37635Y10298D1*
X37701D1*
X37802Y10332D1*
X37868Y10398D1*
X37902Y10466D1*
Y10565D1*
X37868Y10633D1*
X37802Y10700D1*
X37534Y11319D2*
X37467Y11251D1*
X37434Y11184D1*
Y11084D1*
X37467Y11017D1*
X37534Y10950D1*
X37635Y10916D1*
X37701D1*
X37802Y10950D1*
X37868Y11017D1*
X37902Y11084D1*
Y11184D1*
X37868Y11251D1*
X37802Y11319D1*
X37199Y11769D2*
X37902D1*
X37199Y11535D2*
Y12004D1*
X37434Y12621D2*
X37902D1*
X37534D2*
X37467Y12555D1*
X37434Y12488D1*
Y12388D1*
X37467Y12320D1*
X37534Y12254D1*
X37635Y12220D1*
X37701D1*
X37802Y12254D1*
X37868Y12320D1*
X37902Y12388D1*
Y12488D1*
X37868Y12555D1*
X37802Y12621D1*
X37199Y12838D2*
X37902D1*
X37199Y13054D2*
X37902D1*
X37434Y13389D2*
X37769Y13054D1*
X37635Y13188D2*
X37902Y13422D1*
X38733Y9337D2*
X38700D1*
X38632Y9371D1*
X38599Y9404D1*
X38566Y9471D1*
Y9605D1*
X38599Y9672D1*
X38632Y9705D1*
X38700Y9739D1*
X38766D1*
X38834Y9705D1*
X38933Y9638D1*
X39269Y9303D1*
Y9772D1*
Y10323D2*
X38566D1*
X39034Y9988D1*
Y10490D1*
X38565Y10707D2*
X39269Y10974D1*
X38565Y11242D1*
X38644Y12865D2*
X38610Y12933D1*
X38510Y13033D1*
X39213D1*
X38677Y13283D2*
X38644D1*
X38577Y13317D1*
X38543Y13350D1*
X38510Y13417D1*
Y13551D1*
X38543Y13618D1*
X38577Y13651D1*
X38644Y13685D1*
X38711D1*
X38778Y13651D1*
X38878Y13584D1*
X39213Y13249D1*
Y13718D1*
X38509Y13934D2*
X39213Y14202D1*
X38509Y14470D1*
X4364Y19279D2*
X4431Y19313D1*
X4532Y19413D1*
Y18710D1*
X4782Y19246D2*
Y19279D1*
X4815Y19346D1*
X4849Y19380D1*
X4916Y19413D1*
X5050D1*
X5116Y19380D1*
X5150Y19346D1*
X5184Y19279D1*
Y19212D1*
X5150Y19145D1*
X5083Y19045D1*
X4748Y18710D1*
X5217D1*
X5433Y19414D2*
X5701Y18710D1*
X5969Y19414D1*
X6185D2*
Y18710D1*
X6419D1*
X6520Y18744D1*
X6587Y18811D1*
X6620Y18878D1*
X6654Y18978D1*
Y19146D1*
X6620Y19246D1*
X6587Y19313D1*
X6520Y19380D1*
X6419Y19414D1*
X6185D1*
X7372Y19246D2*
X7339Y19313D1*
X7271Y19380D1*
X7205Y19414D1*
X7071D1*
X7004Y19380D1*
X6937Y19313D1*
X6903Y19246D1*
X6870Y19146D1*
Y18978D1*
X6903Y18878D1*
X6937Y18811D1*
X7004Y18744D1*
X7071Y18710D1*
X7205D1*
X7271Y18744D1*
X7339Y18811D1*
X7372Y18878D1*
X8269Y19414D2*
Y18710D1*
X8485Y19179D2*
Y18710D1*
Y19045D2*
X8585Y19146D1*
X8653Y19179D1*
X8752D1*
X8820Y19146D1*
X8853Y19045D1*
Y18710D1*
X9069Y19179D2*
Y18476D1*
Y19079D2*
X9136Y19145D1*
X9203Y19179D1*
X9304D1*
X9371Y19145D1*
X9437Y19079D1*
X9471Y18978D1*
Y18911D1*
X9437Y18811D1*
X9371Y18744D1*
X9304Y18710D1*
X9203D1*
X9136Y18744D1*
X9069Y18811D1*
X9688Y19179D2*
Y18844D1*
X9721Y18744D1*
X9788Y18710D1*
X9889D1*
X9955Y18744D1*
X10056Y18844D1*
Y19179D2*
Y18710D1*
X10373Y19414D2*
Y18844D1*
X10406Y18744D1*
X10473Y18710D1*
X10540D1*
X10272Y19179D2*
X10507D1*
X4573Y8595D2*
Y8629D1*
X4606Y8696D1*
X4639Y8729D1*
X4707Y8762D1*
X4841D1*
X4907Y8729D1*
X4940Y8696D1*
X4975Y8629D1*
Y8562D1*
X4940Y8495D1*
X4874Y8395D1*
X4539Y8060D1*
X5008D1*
X5559D2*
Y8762D1*
X5224Y8294D1*
X5726D1*
X5942Y8763D2*
X6210Y8060D1*
X6478Y8763D1*
X6694D2*
Y8060D1*
X6928D1*
X7029Y8094D1*
X7096Y8160D1*
X7129Y8228D1*
X7163Y8328D1*
Y8495D1*
X7129Y8596D1*
X7096Y8663D1*
X7029Y8730D1*
X6928Y8763D1*
X6694D1*
X7881Y8596D2*
X7848Y8663D1*
X7780Y8730D1*
X7714Y8763D1*
X7580D1*
X7513Y8730D1*
X7446Y8663D1*
X7412Y8596D1*
X7379Y8495D1*
Y8328D1*
X7412Y8228D1*
X7446Y8160D1*
X7513Y8094D1*
X7580Y8060D1*
X7714D1*
X7780Y8094D1*
X7848Y8160D1*
X7881Y8228D1*
X8778Y8763D2*
Y8060D1*
X8994Y8529D2*
Y8060D1*
Y8395D2*
X9094Y8495D1*
X9162Y8529D1*
X9262D1*
X9329Y8495D1*
X9362Y8395D1*
Y8060D1*
X9578Y8529D2*
Y7825D1*
Y8428D2*
X9646Y8495D1*
X9712Y8529D1*
X9813D1*
X9880Y8495D1*
X9947Y8428D1*
X9981Y8328D1*
Y8260D1*
X9947Y8160D1*
X9880Y8093D1*
X9813Y8060D1*
X9712D1*
X9646Y8093D1*
X9578Y8160D1*
X10197Y8529D2*
Y8194D1*
X10230Y8094D1*
X10297Y8060D1*
X10398D1*
X10465Y8094D1*
X10565Y8194D1*
Y8529D2*
Y8060D1*
X10882Y8763D2*
Y8194D1*
X10915Y8094D1*
X10982Y8060D1*
X11049D1*
X10781Y8529D2*
X11016D1*
X20441Y8358D2*
X20509Y8392D1*
X20609Y8492D1*
Y7789D1*
X20825Y8141D2*
X21212D1*
X21462Y8325D2*
Y8358D1*
X21496Y8425D1*
X21529Y8459D1*
X21596Y8492D1*
X21730D1*
X21797Y8459D1*
X21830Y8425D1*
X21864Y8358D1*
Y8292D1*
X21830Y8224D1*
X21763Y8124D1*
X21428Y7789D1*
X21897D1*
X23330D2*
X23061Y8493D1*
X22794Y7789D1*
X22894Y8024D2*
X23229D1*
X23546Y8258D2*
Y7789D1*
Y8124D2*
X23647Y8225D1*
X23714Y8258D1*
X23814D1*
X23881Y8225D1*
X23914Y8124D1*
Y7789D1*
Y8124D2*
X24015Y8225D1*
X24082Y8258D1*
X24182D1*
X24249Y8225D1*
X24284Y8124D1*
Y7789D1*
X24500Y8258D2*
Y7555D1*
Y8158D2*
X24567Y8224D1*
X24634Y8258D1*
X24734D1*
X24801Y8224D1*
X24868Y8158D1*
X24902Y8057D1*
Y7990D1*
X24868Y7890D1*
X24801Y7823D1*
X24734Y7789D1*
X24634D1*
X24567Y7823D1*
X24500Y7890D1*
X22143Y19861D2*
X22210Y19895D1*
X22310Y19994D1*
Y19292D1*
X22527Y19643D2*
X22914D1*
X23164Y19827D2*
Y19861D1*
X23197Y19928D1*
X23230Y19961D1*
X23298Y19994D1*
X23431D1*
X23498Y19961D1*
X23531Y19928D1*
X23565Y19861D1*
Y19794D1*
X23531Y19727D1*
X23465Y19627D1*
X23130Y19292D1*
X23599D1*
X25031D2*
X24763Y19995D1*
X24495Y19292D1*
X24596Y19526D2*
X24931D1*
X25248Y19761D2*
Y19292D1*
Y19627D2*
X25348Y19727D1*
X25415Y19761D1*
X25515D1*
X25583Y19727D1*
X25616Y19627D1*
Y19292D1*
Y19627D2*
X25716Y19727D1*
X25784Y19761D1*
X25884D1*
X25951Y19727D1*
X25985Y19627D1*
Y19292D1*
X26201Y19761D2*
Y19057D1*
Y19660D2*
X26268Y19727D1*
X26335Y19761D1*
X26436D1*
X26503Y19727D1*
X26569Y19660D1*
X26603Y19560D1*
Y19492D1*
X26569Y19392D1*
X26503Y19325D1*
X26436Y19292D1*
X26335D1*
X26268Y19325D1*
X26201Y19392D1*
X30390Y22493D2*
X30322Y22560D1*
X30255Y22593D1*
X30155D1*
X30088Y22560D1*
X30021Y22493D1*
X29987Y22392D1*
Y22326D1*
X30021Y22225D1*
X30088Y22159D1*
X30155Y22125D1*
X30255D1*
X30322Y22159D1*
X30390Y22225D1*
X31008Y22493D2*
X30941Y22560D1*
X30874Y22593D1*
X30774D1*
X30706Y22560D1*
X30640Y22493D1*
X30606Y22392D1*
Y22326D1*
X30640Y22225D1*
X30706Y22159D1*
X30774Y22125D1*
X30874D1*
X30941Y22159D1*
X31008Y22225D1*
X31459Y22828D2*
Y22125D1*
X31224Y22828D2*
X31693D1*
X32311Y22593D2*
Y22125D1*
Y22493D2*
X32244Y22560D1*
X32177Y22593D1*
X32077D1*
X32010Y22560D1*
X31943Y22493D1*
X31909Y22392D1*
Y22326D1*
X31943Y22225D1*
X32010Y22159D1*
X32077Y22125D1*
X32177D1*
X32244Y22159D1*
X32311Y22225D1*
X32527Y22828D2*
Y22125D1*
X32743Y22828D2*
Y22125D1*
X33078Y22593D2*
X32743Y22258D1*
X32877Y22392D2*
X33112Y22125D1*
X34008Y22493D2*
X34309D1*
X34410Y22527D1*
X34444Y22560D1*
X34477Y22627D1*
Y22694D1*
X34444Y22761D1*
X34410Y22795D1*
X34309Y22828D1*
X34008D1*
Y22125D1*
X34243Y22493D2*
X34477Y22125D1*
X35162Y22727D2*
X35096Y22795D1*
X34995Y22828D1*
X34861D1*
X34761Y22795D1*
X34693Y22727D1*
Y22661D1*
X34727Y22593D1*
X34761Y22560D1*
X34827Y22527D1*
X35028Y22460D1*
X35096Y22426D1*
X35129Y22392D1*
X35162Y22326D1*
Y22225D1*
X35096Y22159D1*
X34995Y22125D1*
X34861D1*
X34761Y22159D1*
X34693Y22225D1*
X35412Y22660D2*
Y22693D1*
X35446Y22761D1*
X35479Y22794D1*
X35546Y22827D1*
X35680D1*
X35747Y22794D1*
X35780Y22761D1*
X35814Y22693D1*
Y22627D1*
X35780Y22559D1*
X35713Y22460D1*
X35378Y22125D1*
X35847D1*
X36131Y22827D2*
X36498D1*
X36298Y22559D1*
X36398D1*
X36465Y22526D1*
X36498Y22493D1*
X36532Y22392D1*
Y22326D1*
X36498Y22225D1*
X36432Y22158D1*
X36331Y22125D1*
X36230D1*
X36131Y22158D1*
X36097Y22192D1*
X36063Y22258D1*
X36782Y22660D2*
Y22693D1*
X36816Y22761D1*
X36849Y22794D1*
X36916Y22827D1*
X37050D1*
X37117Y22794D1*
X37150Y22761D1*
X37184Y22693D1*
Y22627D1*
X37150Y22559D1*
X37083Y22460D1*
X36748Y22125D1*
X37217D1*
X30070Y21772D2*
Y21069D1*
X30287Y21538D2*
Y21069D1*
Y21404D2*
X30387Y21505D1*
X30454Y21538D1*
X30554D1*
X30622Y21505D1*
X30655Y21404D1*
Y21069D1*
X30972Y21772D2*
Y21203D1*
X31005Y21103D1*
X31072Y21069D1*
X31139D1*
X30871Y21538D2*
X31105D1*
X31355Y21337D2*
X31756D1*
Y21404D1*
X31723Y21471D1*
X31690Y21505D1*
X31623Y21538D1*
X31522D1*
X31455Y21505D1*
X31388Y21437D1*
X31355Y21337D1*
Y21270D1*
X31388Y21170D1*
X31455Y21103D1*
X31522Y21069D1*
X31623D1*
X31690Y21103D1*
X31756Y21170D1*
X31973Y21538D2*
Y21069D1*
Y21337D2*
X32007Y21437D1*
X32073Y21505D1*
X32141Y21538D1*
X32241D1*
X32725Y21772D2*
X32658D1*
X32591Y21739D1*
X32558Y21638D1*
Y21069D1*
X32457Y21538D2*
X32692D1*
X33343D2*
Y21069D1*
Y21437D2*
X33276Y21505D1*
X33209Y21538D1*
X33109D1*
X33042Y21505D1*
X32975Y21437D1*
X32941Y21337D1*
Y21270D1*
X32975Y21170D1*
X33042Y21103D1*
X33109Y21069D1*
X33209D1*
X33276Y21103D1*
X33343Y21170D1*
X33961Y21437D2*
X33894Y21505D1*
X33827Y21538D1*
X33727D1*
X33659Y21505D1*
X33593Y21437D1*
X33559Y21337D1*
Y21270D1*
X33593Y21170D1*
X33659Y21103D1*
X33727Y21069D1*
X33827D1*
X33894Y21103D1*
X33961Y21170D1*
X34177Y21337D2*
X34579D1*
Y21404D1*
X34546Y21471D1*
X34512Y21505D1*
X34445Y21538D1*
X34345D1*
X34278Y21505D1*
X34211Y21437D1*
X34177Y21337D1*
Y21270D1*
X34211Y21170D1*
X34278Y21103D1*
X34345Y21069D1*
X34445D1*
X34512Y21103D1*
X34579Y21170D1*
X35476Y21772D2*
X35743Y21069D1*
X36011Y21772D1*
X36261Y21604D2*
Y21638D1*
X36294Y21705D1*
X36328Y21738D1*
X36395Y21772D1*
X36529D1*
X36595Y21738D1*
X36629Y21705D1*
X36663Y21638D1*
Y21571D1*
X36629Y21504D1*
X36562Y21404D1*
X36227Y21069D1*
X36696D1*
X7765Y4852D2*
X7899Y4383D1*
X8033Y4852D1*
X8167Y4383D1*
X8301Y4852D1*
X8517D2*
X8651Y4383D1*
X8785Y4852D1*
X8919Y4383D1*
X9052Y4852D1*
X9269D2*
X9402Y4383D1*
X9536Y4852D1*
X9670Y4383D1*
X9804Y4852D1*
X10053Y4450D2*
X10020Y4416D1*
X10053Y4383D1*
X10087Y4416D1*
X10053Y4450D1*
X10404Y5086D2*
Y4517D1*
X10438Y4417D1*
X10505Y4383D1*
X10571D1*
X10304Y4852D2*
X10538D1*
X10788Y5086D2*
Y4383D1*
Y4718D2*
X10888Y4819D1*
X10955Y4852D1*
X11056D1*
X11123Y4819D1*
X11156Y4718D1*
Y4383D1*
X11372Y5086D2*
X11405Y5053D1*
X11439Y5086D1*
X11405Y5120D1*
X11372Y5086D1*
X11405Y4852D2*
Y4383D1*
X11655Y4852D2*
Y4383D1*
Y4718D2*
X11756Y4819D1*
X11823Y4852D1*
X11923D1*
X11990Y4819D1*
X12024Y4718D1*
Y4383D1*
X12240Y5086D2*
Y4383D1*
X12575Y4852D2*
X12240Y4517D1*
X12374Y4651D2*
X12608Y4383D1*
X13227Y4751D2*
X13159Y4819D1*
X13092Y4852D1*
X12992D1*
X12925Y4819D1*
X12858Y4751D1*
X12824Y4651D1*
Y4584D1*
X12858Y4484D1*
X12925Y4417D1*
X12992Y4383D1*
X13092D1*
X13159Y4417D1*
X13227Y4484D1*
X13443Y5086D2*
Y4383D1*
Y4718D2*
X13543Y4819D1*
X13611Y4852D1*
X13711D1*
X13778Y4819D1*
X13811Y4718D1*
Y4383D1*
X14027Y5086D2*
X14061Y5053D1*
X14095Y5086D1*
X14061Y5120D1*
X14027Y5086D1*
X14061Y4852D2*
Y4383D1*
X14311Y4852D2*
Y4149D1*
Y4751D2*
X14378Y4818D1*
X14445Y4852D1*
X14545D1*
X14613Y4818D1*
X14679Y4751D1*
X14713Y4651D1*
Y4583D1*
X14679Y4484D1*
X14613Y4416D1*
X14545Y4383D1*
X14445D1*
X14378Y4416D1*
X14311Y4484D1*
X14963Y4450D2*
X14929Y4416D1*
X14963Y4383D1*
X14997Y4416D1*
X14963Y4450D1*
X15615Y4751D2*
X15548Y4819D1*
X15481Y4852D1*
X15381D1*
X15313Y4819D1*
X15247Y4751D1*
X15213Y4651D1*
Y4584D1*
X15247Y4484D1*
X15313Y4417D1*
X15381Y4383D1*
X15481D1*
X15548Y4417D1*
X15615Y4484D1*
X15998Y4852D2*
X15932Y4819D1*
X15865Y4751D1*
X15831Y4651D1*
Y4584D1*
X15865Y4484D1*
X15932Y4417D1*
X15998Y4383D1*
X16099D1*
X16166Y4417D1*
X16233Y4484D1*
X16267Y4584D1*
Y4651D1*
X16233Y4751D1*
X16166Y4819D1*
X16099Y4852D1*
X15998D1*
X16483D2*
Y4383D1*
Y4718D2*
X16584Y4819D1*
X16651Y4852D1*
X16751D1*
X16818Y4819D1*
X16851Y4718D1*
Y4383D1*
Y4718D2*
X16952Y4819D1*
X17019Y4852D1*
X17119D1*
X17186Y4819D1*
X17221Y4718D1*
Y4383D1*
X17470Y4450D2*
X17437Y4416D1*
X17470Y4383D1*
X17504Y4416D1*
X17470Y4450D1*
X17720Y4852D2*
Y4383D1*
Y4718D2*
X17821Y4819D1*
X17888Y4852D1*
X17988D1*
X18055Y4819D1*
X18088Y4718D1*
Y4383D1*
Y4718D2*
X18189Y4819D1*
X18256Y4852D1*
X18356D1*
X18423Y4819D1*
X18458Y4718D1*
Y4383D1*
X18674Y4852D2*
X19042Y4383D1*
Y4852D2*
X18674Y4383D1*
M02*
